<svg xmlns="http://www.w3.org/2000/svg" width="500" height="500" viewBox="0 0 500 500"><linearGradient id="linearGradient8ada773ca394b2b3f5ded4d605851429" gradientUnits="userSpaceOnUse" gradientTransform="translate(250,250) rotate(270) translate(-250,-250)" x1="50%" y1="0%" x2="50%" y2="100%"><stop offset="0%" stop-color="#7018C7"/><stop offset="100%" stop-color="#186DE6"/></linearGradient><rect x="0" y="0" width="500" height="500" fill="url(#linearGradient8ada773ca394b2b3f5ded4d605851429)"/><g transform="translate(8.620689655172312,15.050527003192004)translate(241.37931034482844,234.6207909467291)rotate(0)translate(-241.37931034482844,-234.6207909467291) scale(4.827592685478436,4.827592685478436)" opacity="1"><defs class="defs"><linearGradient id="linearGradientc7de50e1c141ba8ba49da071b4a5c488" class="linearGradient1" gradientTransform="translate(0.5,0.5) rotate(270) translate(-0.5,-0.5)" x1="50%" y1="0%" x2="50%" y2="100%"><stop id="stop1" offset="0%" class="linearGradientColor1" stop-color="#FFDD64"/><stop id="stop2" offset="100%" class="linearGradientColor2" stop-color="#FF8F00"/></linearGradient></defs><path transform="translate(0.0002894575573353375,-1.26)" d="M64.506,32.754c3.367,-0.019 11.352,0.001 13.971,0.007c4.514,0.01 8.711,2.874 10.182,7.398c1.469,4.525 -0.244,9.309 -3.889,11.971c-2.115,1.545 -8.562,6.254 -11.297,8.217c0,0 3.506,10.797 4.309,13.291c1.385,4.295 -0.041,9.172 -3.891,11.969c-3.848,2.797 -8.928,2.645 -12.586,0c-2.121,-1.535 -8.594,-6.211 -11.305,-8.205c-2.713,1.994 -9.185,6.67 -11.307,8.205c-3.658,2.645 -8.738,2.795 -12.587,-0.002c-3.849,-2.795 -5.274,-7.674 -3.89,-11.969c0.804,-2.494 3.252,-10.094 4.31,-13.289c-2.733,-1.963 -9.182,-6.672 -11.297,-8.217c-3.645,-2.662 -5.357,-7.446 -3.889,-11.971c1.471,-4.524 5.669,-7.388 10.183,-7.398c2.618,-0.006 10.604,-0.026 13.97,-0.008c1.022,-3.207 3.509,-10.795 4.324,-13.284c1.404,-4.29 5.427,-7.397 10.184,-7.397c4.757,0 8.779,3.108 10.183,7.397c0.814,2.49 3.3,10.078 4.322,13.285zM79.832,62.416c0.391,1.211 2.477,7.637 3.092,9.549c2.084,6.467 -0.061,13.809 -5.855,18.017c-5.793,4.209 -13.438,3.98 -18.943,0c-1.629,-1.176 -5.738,-4.149 -8.125,-5.892c-2.389,1.742 -6.499,4.716 -8.128,5.892c-5.505,3.98 -13.15,4.207 -18.943,-0.002c-5.793,-4.208 -7.939,-11.55 -5.855,-18.017c0.617,-1.912 2.174,-6.738 3.094,-9.549c-2.396,-1.732 -6.492,-4.723 -8.115,-5.908c-5.489,-4.006 -8.068,-11.207 -5.855,-18.017c2.213,-6.81 8.532,-11.12 15.325,-11.136c2.009,-0.005 7.082,-0.017 10.038,-0.01c0.906,-2.813 2.485,-7.634 3.111,-9.543c2.114,-6.456 8.167,-11.134 15.327,-11.133c7.162,0 13.212,4.678 15.328,11.135c0.625,1.909 2.203,6.729 3.109,9.543c2.957,-0.007 8.029,0.005 10.037,0.01c6.796,0.015 13.114,4.325 15.327,11.135c2.213,6.81 -0.367,14.012 -5.854,18.018c-1.623,1.183 -5.718,4.176 -8.115,5.908zM86.191,64.482c2.059,-1.502 3.803,-2.773 4.934,-3.598c7.328,-5.352 10.773,-14.968 7.818,-24.064c-2.955,-9.096 -11.395,-14.853 -20.469,-14.875c-1.398,-0.003 -3.559,-0.007 -6.105,-0.012c-0.791,-2.42 -1.463,-4.473 -1.898,-5.803c-2.823,-8.622 -10.907,-14.87 -20.471,-14.87c-9.563,0 -17.647,6.247 -20.472,14.871c-0.436,1.33 -1.106,3.383 -1.897,5.803c-2.547,0.005 -4.706,0.008 -6.106,0.012c-9.073,0.021 -17.513,5.778 -20.468,14.874c-2.956,9.096 0.488,18.712 7.816,24.064c1.131,0.824 2.875,2.098 4.933,3.598c-0.782,2.424 -1.446,4.479 -1.876,5.811c-2.783,8.637 0.083,18.441 7.82,24.063c7.737,5.621 17.948,5.318 25.302,0.002c1.134,-0.82 2.883,-2.086 4.946,-3.58c2.064,1.494 3.812,2.76 4.947,3.58c7.354,5.316 17.564,5.621 25.301,-0.002c7.738,-5.62 10.605,-15.427 7.822,-24.062c-0.429,-1.333 -1.093,-3.388 -1.877,-5.812z" fill="url(#linearGradientc7de50e1c141ba8ba49da071b4a5c488)" class="fill c1"/></g></svg>